<svg width="30" height="30" viewBox="0 0 30 30" fill="none" xmlns="http://www.w3.org/2000/svg">
<g clip-path="url(#clip0_36_27)">
<path d="M29.3753 4.9272C28.9379 1.30613 25.9158 -0.147406 23.1157 0.0198251C21.454 0.118131 19.8083 0.17047 17.8486 0.218941C16.0731 0.262826 14.2523 0.300514 12.646 0.333737C10.3409 0.381588 7.9574 0.431159 5.5906 0.497109C2.87338 0.572977 0.682404 2.33775 0.261051 4.78883C0.0918709 5.77263 0.0869462 6.76534 0.097397 7.86778C0.128012 11.0872 0.174734 14.3403 0.220348 17.4863L0.22527 17.827C0.243303 19.0926 0.260995 20.3583 0.278371 21.624C0.281322 21.8372 0.288699 22.0509 0.296322 22.2646L0.296952 22.2818C0.327868 22.8113 0.322656 23.3424 0.281343 23.8713C0.135155 25.2836 0.671342 26.7894 1.71581 27.8992C2.87684 29.1328 4.52226 29.7599 6.3503 29.666C8.34505 29.5618 10.3798 29.5817 12.3474 29.6008L12.4899 29.6022C14.825 29.6247 17.1997 29.6846 19.4992 29.7428L20.6587 29.7721C20.8539 29.7839 21.0477 29.8134 21.2375 29.8606C21.3371 29.8819 21.4367 29.903 21.5359 29.9202C21.5502 29.9227 21.5647 29.9241 21.5791 29.9241H22.8372C22.8497 29.9239 22.862 29.9231 22.8741 29.9213C23.1256 29.8841 23.3782 29.8504 23.63 29.8172L23.649 29.8147C24.2136 29.7403 24.7973 29.6637 25.3663 29.5391C27.8209 29.0015 29.9005 26.4346 29.9074 23.9341C29.9091 23.345 29.9112 22.7557 29.9136 22.1663L29.9147 21.8704C29.927 18.6403 29.9405 15.3003 29.8716 12.0114C29.8213 9.61972 29.6544 7.23571 29.3753 4.9272ZM28.0105 23.7599C28.018 25.6912 26.3472 27.4994 24.2068 27.8764C22.5667 28.1652 20.8903 28.067 19.2688 27.9725C18.667 27.9372 18.0446 27.9008 17.4262 27.8843C16.7241 27.8657 16.009 27.8291 15.3136 27.7936L15.2522 27.7903C14.9529 27.7751 14.6534 27.7598 14.3563 27.7462H14.3426C13.5859 27.7462 12.8293 27.7453 12.0726 27.7434C11.1943 27.7419 10.3021 27.7404 9.40612 27.7404C8.22763 27.7404 7.25879 27.7429 6.35633 27.7483H6.31662C4.99293 27.7483 3.90102 27.3525 3.15889 26.6032C2.38725 25.8242 1.98458 24.6607 1.99479 23.238C2.01864 19.893 2.00424 16.5065 1.99023 13.2313C1.98236 11.3614 1.97426 9.42794 1.97327 7.51749C1.95479 6.41722 2.2016 5.32888 2.69251 4.34604C3.24923 3.26654 4.24368 2.69369 5.82188 2.54332C8.03647 2.33257 9.82344 2.21777 11.4455 2.18219C16.1284 2.0788 19.7324 2.04223 23.1306 2.06343C25.6094 2.07892 27.041 3.25463 27.5076 5.65847C28.024 8.32252 28.0167 11.0607 28.0089 13.7102L28.0082 13.9348C27.9977 17.6922 27.9983 20.814 28.0103 23.7599H28.0105Z" fill="black"/>
<path d="M15.6363 7.90895C14.0827 7.8797 12.7001 8.19806 11.525 8.85111C10.1099 9.63706 8.6025 10.6982 8.15139 12.6064C7.57131 15.0596 7.83516 17.4199 8.93557 19.6218C9.72344 21.1987 10.9585 22.169 12.5072 22.4276C13.4339 22.5907 14.3722 22.6764 15.3129 22.6838C15.608 22.6838 15.9007 22.6734 16.1818 22.6529C18.2669 22.5013 19.9232 21.6585 21.1046 20.1476C22.934 17.8079 23.2521 15.1293 22.0504 12.1859C20.8884 9.33953 18.6655 7.85999 15.6363 7.90895ZM20.7215 15.4303C20.7305 18.6286 18.6036 20.7646 15.3026 20.8707C14.4628 20.8851 13.6239 20.8112 12.7993 20.6504C11.7439 20.4594 10.9427 19.8189 10.4176 18.747C9.54183 16.9583 9.32938 15.1094 9.7859 13.2518C10.1377 11.8205 11.1742 10.7707 12.9547 10.0424C13.6163 9.77417 14.3234 9.63796 15.0365 9.64128C15.6542 9.64422 16.2685 9.73542 16.8609 9.91216C19.1985 10.5981 20.7139 12.764 20.7215 15.4303Z" fill="black"/>
<path d="M23.6385 4.79456H23.6032C23.2576 4.80328 22.9285 4.94536 22.6837 5.19151C22.439 5.43766 22.2971 5.76915 22.2876 6.11757C22.279 6.28739 22.3047 6.45718 22.3631 6.61671C22.4215 6.77625 22.5113 6.92221 22.6271 7.04581C22.748 7.16989 22.8927 7.26794 23.0523 7.33399C23.212 7.40005 23.3831 7.43275 23.5557 7.43012C23.8961 7.41903 24.2192 7.27644 24.4581 7.03182C24.6971 6.78722 24.8336 6.45934 24.8395 6.11606C24.8505 5.43101 24.2893 4.81365 23.6385 4.79456Z" fill="black"/>
</g>
<defs>
<clipPath id="clip0_36_27">
<rect width="30" height="30" fill="white"/>
</clipPath>
</defs>
</svg>
