<svg width="30" height="39" viewBox="0 0 30 39" fill="none" xmlns="http://www.w3.org/2000/svg">
<g clip-path="url(#clip0_36_31)">
<path d="M26.5433 5.69406C24.9432 3.35229 22.6104 1.60859 19.9113 0.737042C17.0244 -0.231792 13.877 -0.207862 10.8089 0.80588C7.79741 1.81804 5.13805 3.66992 3.14413 6.1433C0.532478 9.39508 -0.426419 13.2844 0.211863 18.036C0.347787 18.8048 0.574134 19.5546 0.886208 20.27L0.971627 20.4908C1.01439 20.6114 1.08103 20.7222 1.16758 20.8162C1.25414 20.9105 1.35883 20.9863 1.47536 21.0389C1.58297 21.0809 1.69812 21.0998 1.81349 21.0949C1.92886 21.0899 2.0419 21.0608 2.14548 21.0098C2.6564 20.7802 2.5699 20.334 2.51358 20.039C2.50511 19.9957 2.49683 19.9521 2.48984 19.909C2.43462 19.5735 2.37242 19.2382 2.31002 18.9027C2.14333 18.1094 2.03062 17.3057 1.97266 16.4971C1.6515 9.7315 5.76904 4.24874 12.4635 2.52953C17.1504 1.32549 21.085 2.50371 24.1594 6.02899C25.7227 7.85868 26.8362 10.0288 27.4106 12.3658C28.04 14.7688 27.7259 17.3214 26.5327 19.5001C25.3395 21.6787 23.3578 23.3182 20.9941 24.0818C19.8971 24.437 18.7711 24.6956 17.6292 24.8548C16.9812 24.9235 16.3287 24.938 15.6783 24.8984C15.4476 24.8911 15.2109 24.8837 14.9722 24.88C14.9827 24.8202 14.9927 24.7626 15.0022 24.7067C15.0425 24.4746 15.0775 24.2732 15.1171 24.0728C15.6352 21.4575 16.1702 18.4078 15.9574 15.3121C15.8945 14.134 15.6564 12.9718 15.2509 11.8639C14.8624 10.8588 14.2386 10.2056 13.4485 9.97463C12.628 9.73537 11.7074 9.96657 10.7853 10.6439C9.63536 11.4883 8.86033 12.436 8.41456 13.5432C7.93603 14.7299 7.44241 15.9572 7.15769 17.2187C6.25972 21.1941 7.80462 24.5909 11.396 26.5378C11.452 26.5733 11.5037 26.6152 11.55 26.6625L11.5646 26.6762C11.4696 27.0422 11.3762 27.4068 11.2844 27.77C11.0636 28.6396 10.8352 29.5387 10.5817 30.4085C10.2659 31.4927 9.92967 32.5917 9.60464 33.6542C9.30611 34.6297 8.99726 35.6368 8.70573 36.6319C8.41659 37.6159 8.72929 38.4481 9.48352 38.703C9.62991 38.754 9.78367 38.7805 9.93867 38.7818C10.5644 38.7818 11.0882 38.3117 11.389 37.4524C11.5914 36.874 11.7698 36.2782 11.9422 35.7019L12.0127 35.4664C12.5855 33.5578 13.1563 31.6501 13.7253 29.7435L14.3969 27.4967C14.765 27.472 15.1401 27.4532 15.5045 27.4352C16.4338 27.4048 17.3609 27.3259 18.282 27.1983C22.2267 26.5801 24.9614 25.2045 26.8881 22.8697C29.1679 20.1069 30.1319 17.1825 29.8352 13.928C29.5871 11.2175 28.5414 8.60166 26.5433 5.69406ZM13.2883 15.013C13.2085 16.8321 13.0541 18.7619 12.8157 20.9123C12.73 21.6877 12.5722 22.4414 12.4051 23.2394C12.3471 23.5168 12.2888 23.7954 12.2336 24.0757C10.2506 23.0894 9.03442 20.7178 9.44448 18.5653C9.7178 17.1298 10.2588 15.7078 10.7445 14.4885C11.0813 13.6419 11.7383 12.9592 12.6981 12.4554C13.1512 13.2278 13.3571 14.1202 13.2883 15.013Z" fill="black"/>
</g>
<defs>
<clipPath id="clip0_36_31">
<rect width="30" height="38.8344" fill="white"/>
</clipPath>
</defs>
</svg>
